<svg version="1.1" id="Layer_1" xmlns="http://www.w3.org/2000/svg" xmlns:xlink="http://www.w3.org/1999/xlink" x="0px" y="0px"
	 width="100%" viewBox="0 0 512 512" enable-background="new 0 0 512 512" xml:space="preserve">
<path fill="#000000" opacity="1.000000" stroke="none" 
	d="
M288.000000,513.000000 
	C192.023300,513.000000 96.546600,513.000000 1.034948,513.000000 
	C1.034948,342.398285 1.034948,171.796539 1.034948,1.097402 
	C171.560043,1.097402 342.120178,1.097402 512.840149,1.097402 
	C512.840149,171.666550 512.840149,342.333252 512.840149,513.000000 
	C438.129852,513.000000 363.314911,513.000000 288.000000,513.000000 
M157.961639,107.549927 
	C154.972183,109.534271 151.811127,111.304619 149.023056,113.540123 
	C137.124283,123.080635 125.382027,132.806671 116.740280,145.631989 
	C110.152969,155.408325 102.512878,164.660019 97.278831,175.115158 
	C91.175095,187.307510 86.426315,200.330093 82.514015,213.418243 
	C79.525871,223.414734 77.818840,234.017792 77.191994,244.450165 
	C75.872742,266.405731 77.629158,288.222107 85.051765,309.159302 
	C89.038544,320.404999 92.880119,331.848389 98.363686,342.381897 
	C106.039635,357.126801 115.297318,371.055084 127.856682,382.309418 
	C136.482483,390.038849 145.036575,397.918793 154.247498,404.908173 
	C167.744476,415.149902 183.047775,422.148651 199.083725,427.571686 
	C213.405701,432.415100 227.936905,436.036987 243.183075,436.006104 
	C253.347855,435.985504 263.522064,436.266205 273.674072,435.905426 
	C279.989380,435.681030 286.377716,435.003571 292.546661,433.667603 
	C307.409180,430.449005 321.791840,425.620544 335.506561,418.984406 
	C351.638245,411.178772 366.291565,401.067871 379.400635,388.939026 
	C391.118347,378.097473 401.259674,365.769073 409.425995,351.990631 
	C413.904236,344.434784 418.382111,336.785706 421.824249,328.735748 
	C425.080048,321.121674 427.372040,313.025513 429.375366,304.964325 
	C431.661926,295.763367 434.106720,286.433746 434.772614,277.038818 
	C435.689270,264.106140 435.103516,251.058563 434.944305,238.062851 
	C434.892365,233.824112 434.738037,229.435608 433.629028,225.390152 
	C430.720245,214.779678 427.779907,204.122284 423.869171,193.858063 
	C420.142609,184.077209 415.640015,174.516144 410.635254,165.317261 
	C404.270721,153.619186 395.597626,143.616028 386.620880,133.705551 
	C375.928284,121.900742 363.594696,112.420830 350.301300,104.150902 
	C337.242371,96.026878 323.116272,90.010483 308.285675,85.594528 
	C292.611023,80.927246 276.657684,78.216087 260.367401,78.126030 
	C251.381287,78.076347 242.397629,79.547104 233.395752,79.949348 
	C217.848404,80.644104 203.258270,85.342705 189.151016,91.183670 
	C178.566940,95.565910 168.704529,101.691132 157.961639,107.549927 
z"/>
<path fill="#FEFEFE" opacity="1.000000" stroke="none" 
	d="
M158.241241,107.295143 
	C168.704529,101.691132 178.566940,95.565910 189.151016,91.183670 
	C203.258270,85.342705 217.848404,80.644104 233.395752,79.949348 
	C242.397629,79.547104 251.381287,78.076347 260.367401,78.126030 
	C276.657684,78.216087 292.611023,80.927246 308.285675,85.594528 
	C323.116272,90.010483 337.242371,96.026878 350.301300,104.150902 
	C363.594696,112.420830 375.928284,121.900742 386.620880,133.705551 
	C395.597626,143.616028 404.270721,153.619186 410.635254,165.317261 
	C415.640015,174.516144 420.142609,184.077209 423.869171,193.858063 
	C427.779907,204.122284 430.720245,214.779678 433.629028,225.390152 
	C434.738037,229.435608 434.892365,233.824112 434.944305,238.062851 
	C435.103516,251.058563 435.689270,264.106140 434.772614,277.038818 
	C434.106720,286.433746 431.661926,295.763367 429.375366,304.964325 
	C427.372040,313.025513 425.080048,321.121674 421.824249,328.735748 
	C418.382111,336.785706 413.904236,344.434784 409.425995,351.990631 
	C401.259674,365.769073 391.118347,378.097473 379.400635,388.939026 
	C366.291565,401.067871 351.638245,411.178772 335.506561,418.984406 
	C321.791840,425.620544 307.409180,430.449005 292.546661,433.667603 
	C286.377716,435.003571 279.989380,435.681030 273.674072,435.905426 
	C263.522064,436.266205 253.347855,435.985504 243.183075,436.006104 
	C227.936905,436.036987 213.405701,432.415100 199.083725,427.571686 
	C183.047775,422.148651 167.744476,415.149902 154.247498,404.908173 
	C145.036575,397.918793 136.482483,390.038849 127.856682,382.309418 
	C115.297318,371.055084 106.039635,357.126801 98.363686,342.381897 
	C92.880119,331.848389 89.038544,320.404999 85.051765,309.159302 
	C77.629158,288.222107 75.872742,266.405731 77.191994,244.450165 
	C77.818840,234.017792 79.525871,223.414734 82.514015,213.418243 
	C86.426315,200.330093 91.175095,187.307510 97.278831,175.115158 
	C102.512878,164.660019 110.152969,155.408325 116.740280,145.631989 
	C125.382027,132.806671 137.124283,123.080635 149.023056,113.540123 
	C151.811127,111.304619 154.972183,109.534271 158.241241,107.295143 
M262.920654,274.936371 
	C262.920654,274.936371 262.842316,274.869690 263.609131,274.964020 
	C266.470093,275.328949 269.632263,279.002777 272.766724,274.043640 
	C297.137482,263.472351 322.509460,257.370361 349.150513,256.941925 
	C353.445923,256.872833 354.138367,254.283340 354.124390,250.596359 
	C354.024567,224.278992 353.984650,197.960617 354.143524,171.643875 
	C354.168640,167.483856 352.801361,166.311050 348.739044,166.045029 
	C342.953186,165.666107 343.209839,169.280869 342.300842,173.004776 
	C341.267212,172.989975 340.233551,172.975159 339.044891,172.039612 
	C339.008606,169.048981 338.939697,166.058334 338.941467,163.067719 
	C338.950348,147.887878 338.232300,147.448090 323.297150,154.069199 
	C321.928955,154.373489 320.560730,154.677765 319.198669,154.166931 
	C318.736877,152.458939 318.830261,150.050705 317.715240,149.166687 
	C313.364227,145.717163 316.071289,141.091248 315.110168,137.144226 
	C313.605072,130.963226 317.962708,129.591064 322.140686,127.918480 
	C323.056061,127.552017 323.949707,127.131302 325.794159,126.323593 
	C322.535919,124.422035 321.073425,123.374992 319.463806,122.658638 
	C300.344849,114.149872 281.232941,105.623329 262.021759,97.327042 
	C260.203674,96.541908 257.432983,96.614037 255.600693,97.418358 
	C236.588989,105.764030 217.667419,114.315933 198.761993,122.901230 
	C197.152740,123.632011 195.839798,125.015274 193.633194,126.658363 
	C203.820496,131.402817 212.931442,135.645981 221.971710,140.547745 
	C221.537689,142.017792 221.103668,143.487823 220.818375,145.887466 
	C220.805023,151.261078 220.791687,156.634705 220.412872,162.226395 
	C220.197449,162.426102 220.058792,162.669525 219.218307,162.897385 
	C218.753586,162.670486 218.288879,162.443604 217.637207,162.101334 
	C217.637207,162.101334 217.226044,161.937683 216.508911,161.763779 
	C206.481216,158.337692 196.511429,154.727570 186.405869,151.549118 
	C179.465439,149.366180 179.224762,149.768326 179.207275,157.164215 
	C179.146759,182.770828 179.075577,208.377396 178.244507,233.996017 
	C177.226227,233.988068 176.207932,233.980118 175.046326,233.048294 
	C175.005524,212.568588 174.855286,192.087997 175.016983,171.609894 
	C175.049026,167.552582 173.623093,166.449371 169.854507,166.410797 
	C165.945007,166.370758 164.279861,167.359055 164.323715,171.733047 
	C164.584076,197.703796 164.553986,223.677429 164.626404,249.650101 
	C164.646179,256.744507 164.887238,256.884033 171.854935,257.128326 
	C191.245529,257.808136 210.200989,260.915436 228.501297,267.555481 
	C235.324097,270.031036 242.154953,272.484436 249.119278,275.687958 
	C251.947037,275.822144 254.774811,275.956360 258.178833,276.434204 
	C259.209320,276.306793 260.239838,276.179352 261.824036,275.975159 
	C262.187683,275.594666 262.551331,275.214172 262.920654,274.936371 
M372.674194,337.552826 
	C380.620819,337.552826 388.567444,337.552826 396.588562,337.552826 
	C396.588562,334.714020 396.588562,332.473450 396.588562,329.777496 
	C390.871490,329.777496 385.444489,329.777496 379.751892,329.777496 
	C379.751892,326.924133 379.751892,324.531036 379.751892,321.579926 
	C384.931702,321.579926 389.838806,321.579926 394.943787,321.579926 
	C394.943787,318.755096 394.943787,316.489136 394.943787,313.747437 
	C389.766357,313.747437 384.834747,313.747437 379.794434,313.747437 
	C379.794434,310.717834 379.794434,308.169800 379.794434,305.107605 
	C385.401550,305.107605 390.645752,305.107605 396.068939,305.107605 
	C396.068939,302.337738 396.068939,300.091797 396.068939,297.778107 
	C387.848724,297.778107 379.941803,297.778107 371.160156,298.101685 
	C371.021912,310.662415 370.870972,323.223053 370.797394,335.784149 
	C370.794769,336.231476 371.557648,336.683258 372.674194,337.552826 
M241.811569,324.488129 
	C241.811569,328.742004 241.811569,332.995880 241.811569,337.091980 
	C250.536606,338.635406 250.685852,338.518585 250.677521,331.029724 
	C250.671387,325.537262 250.676315,320.044800 250.676315,314.552338 
	C254.382111,318.971436 257.027954,323.518890 259.729858,328.032837 
	C262.394043,332.483856 265.485260,332.505493 268.099792,328.072601 
	C270.902740,323.320343 273.627594,318.522034 277.098328,312.511017 
	C277.098328,320.844940 276.926910,327.660614 277.265930,334.450867 
	C277.322876,335.591370 279.558350,337.449341 280.840790,337.495728 
	C282.486969,337.555298 285.627136,336.154449 285.648163,335.320312 
	C285.961060,322.914490 285.864227,310.498322 285.864227,298.213562 
	C277.267090,296.549072 276.748749,296.801849 273.051270,303.459076 
	C270.105072,308.763641 267.089752,314.029755 263.846985,319.769897 
	C260.447510,313.861511 257.470642,308.685913 254.492111,303.511292 
	C250.585068,296.723602 250.275558,296.588562 241.808044,298.238617 
	C241.808044,306.592987 241.808044,315.042877 241.811569,324.488129 
M175.463577,297.810699 
	C169.379684,297.810699 163.295792,297.810699 157.214874,297.810699 
	C157.214874,311.361359 157.214874,324.380798 157.214874,337.306732 
	C163.735184,337.306732 169.910812,337.931671 175.910172,337.169342 
	C186.563324,335.815674 192.856430,328.280426 193.048279,317.902100 
	C193.249252,307.030609 187.442886,300.067657 175.463577,297.810699 
M306.069427,329.921997 
	C310.056671,329.915100 314.058777,329.712616 318.022644,330.013580 
	C319.309357,330.111298 321.054291,331.243134 321.634979,332.386719 
	C324.659332,338.342926 325.533234,338.824249 332.422974,336.764496 
	C332.188202,335.874634 332.038055,334.909790 331.684662,334.026245 
	C327.377686,323.258026 322.860016,312.569153 318.810822,301.705475 
	C317.412415,297.953674 315.229034,297.422424 311.701385,297.306183 
	C307.882141,297.180267 306.975403,299.375092 305.947113,302.122925 
	C304.205872,306.775970 302.285461,311.361633 300.494507,315.996521 
	C297.834686,322.880035 295.222015,329.781738 292.575226,336.712463 
	C299.837280,338.746979 300.681213,338.342133 303.433990,332.223358 
	C303.808594,331.390625 304.601776,330.746246 306.069427,329.921997 
M211.788940,328.931549 
	C210.795731,326.251038 209.087906,323.607788 208.945984,320.882935 
	C208.551941,313.316925 208.809311,305.717010 208.809311,297.997772 
	C205.342270,297.997772 202.640900,297.997772 199.827637,297.997772 
	C199.827637,307.048187 199.496872,315.705872 199.921921,324.326355 
	C200.335556,332.715027 206.527283,337.972900 215.222305,338.207092 
	C226.360184,338.507050 232.872223,334.296021 233.577332,325.082977 
	C234.257889,316.190521 233.724701,307.205170 233.724701,297.976471 
	C230.838135,297.976471 228.137177,297.976471 225.149857,297.976471 
	C225.149857,305.692566 225.216553,313.001373 225.132675,320.308472 
	C225.031738,329.101166 221.238174,331.763153 211.788940,328.931549 
M123.082832,317.500000 
	C123.082939,323.155548 122.944298,328.817291 123.196877,334.461548 
	C123.249191,335.630615 124.724281,337.691406 125.595650,337.719360 
	C133.528366,337.973755 141.472626,337.868683 149.613434,337.868683 
	C149.613434,334.969482 149.613434,332.624817 149.613434,329.996460 
	C146.412521,329.996460 143.604095,329.996460 140.795685,329.996460 
	C138.018860,329.996460 135.242020,329.996460 132.395264,329.996460 
	C132.395264,327.016663 132.395264,324.628998 132.395264,321.914581 
	C136.511841,321.914581 140.321014,321.760254 144.111359,321.961212 
	C147.400513,322.135620 147.937515,320.474274 147.963516,317.692627 
	C147.989258,314.937988 147.147934,313.763428 144.250229,313.903412 
	C140.318146,314.093384 136.369965,313.950684 132.435760,313.950684 
	C132.435760,310.833130 132.435760,308.276978 132.435760,305.820770 
	C133.089096,305.631714 133.406982,305.462402 133.726532,305.459198 
	C137.052780,305.425751 140.379288,305.406311 143.705734,305.407532 
	C150.446457,305.409943 150.539902,305.297302 149.258530,297.931732 
	C140.759399,297.931732 132.200409,297.931732 123.082329,297.931732 
	C123.082329,304.280273 123.082329,310.390503 123.082832,317.500000 
M362.657776,297.382690 
	C353.689850,297.381897 344.720551,297.470398 335.754791,297.330872 
	C332.707306,297.283447 331.219696,297.966919 331.223907,301.435089 
	C331.228363,305.100525 333.111053,305.464478 335.958740,305.299530 
	C338.361420,305.160400 340.778534,305.270935 343.739380,305.270935 
	C343.739380,316.390747 343.739380,326.772766 343.739380,337.259705 
	C346.856995,337.259705 349.405212,337.259705 352.469971,337.259705 
	C352.469971,326.499695 352.469971,316.118500 352.469971,305.238068 
	C356.560455,305.238068 360.133057,305.238068 364.507721,305.238068 
	C364.099548,302.310822 363.774109,299.976959 362.657776,297.382690 
z"/>
<path fill="#3F9EE5" opacity="1.000000" stroke="none" 
	d="
M179.008453,233.983994 
	C179.075577,208.377396 179.146759,182.770828 179.207275,157.164215 
	C179.224762,149.768326 179.465439,149.366180 186.405869,151.549118 
	C196.511429,154.727570 206.481216,158.337692 216.911575,161.995850 
	C217.314240,162.227921 217.572739,162.379028 217.572739,162.379028 
	C217.572739,162.379028 217.824158,162.216721 217.824158,162.216721 
	C218.288879,162.443604 218.753586,162.670486 219.857544,163.096359 
	C220.686874,163.361237 220.876968,163.427124 221.336823,163.659821 
	C234.416779,172.312241 247.226990,180.797882 260.113770,189.473587 
	C260.190338,189.663666 260.307800,190.056335 260.217255,190.277969 
	C260.126709,190.499603 260.195190,190.973495 260.123657,191.437561 
	C260.022064,197.234085 259.992035,202.566574 259.698364,208.036224 
	C258.939758,208.775986 258.444824,209.378571 257.652588,210.129837 
	C249.707275,217.737045 249.710785,217.733231 241.856003,210.499313 
	C241.262177,209.952438 240.568329,209.514160 239.798889,208.771057 
	C239.106781,208.045914 238.536728,207.575104 237.827530,206.834518 
	C236.622208,205.670578 235.556061,204.776443 234.357773,203.616364 
	C233.790100,202.976151 233.354584,202.601883 232.914612,202.145081 
	C232.910156,202.062561 232.746796,202.037476 232.713226,201.861511 
	C232.548553,201.446518 232.347992,201.345764 231.842941,201.115417 
	C228.384262,198.975403 225.160599,197.103271 221.562988,195.147141 
	C219.751724,195.358276 218.314407,195.653412 216.549133,195.985535 
	C215.489487,196.489410 214.757782,196.956268 213.753204,197.485580 
	C212.756088,198.370728 212.031845,199.193420 211.070618,200.319977 
	C210.285019,203.424728 209.736389,206.225632 209.155731,209.263947 
	C209.123688,209.501373 209.311432,209.942230 209.296204,210.285522 
	C212.830643,214.761459 216.380310,218.894089 220.055664,223.294891 
	C220.779999,224.061325 221.378662,224.559601 222.112549,225.346130 
	C223.508347,226.757370 224.768906,227.880341 226.117188,229.231262 
	C226.398300,229.742950 226.662384,229.923065 227.085785,230.235748 
	C227.453598,230.646545 227.732773,230.821152 228.129150,231.260788 
	C228.833588,232.009338 229.420837,232.492889 230.150955,233.277374 
	C234.382874,237.426117 238.471909,241.273911 242.746490,245.345901 
	C243.290039,245.697937 243.648087,245.825775 244.007721,245.981567 
	C244.009308,246.009491 244.059906,245.985626 244.141541,246.156586 
	C244.223160,246.327530 244.525909,246.552017 244.525909,246.552017 
	C244.525909,246.552017 244.902786,246.551147 245.246460,246.734985 
	C247.098038,247.137955 248.605942,247.357086 250.393829,247.647003 
	C251.196335,247.509888 251.718887,247.301956 252.602020,247.102966 
	C254.835007,246.124283 257.088562,245.517883 258.518768,244.087982 
	C268.776794,233.832169 278.867523,223.408936 289.252197,212.950638 
	C289.669250,212.576630 289.845520,212.290848 290.321625,211.871063 
	C292.413300,209.820251 294.205109,207.903458 296.238373,205.906891 
	C296.660156,205.553986 296.840485,205.280853 297.308838,204.860260 
	C299.064392,203.140793 300.531891,201.568787 302.262787,199.875305 
	C302.991180,199.156967 303.456177,198.560120 303.956696,197.974823 
	C303.992188,197.986389 303.960083,197.918991 304.223083,197.789948 
	C304.731689,197.144989 304.977295,196.629059 305.169983,196.096313 
	C305.117065,196.079483 305.124847,196.190231 305.385498,196.102158 
	C305.802063,195.690735 305.958008,195.367401 306.356079,194.838959 
	C306.777191,193.611725 306.956146,192.589615 307.382477,191.375763 
	C307.739014,190.788589 307.848206,190.393143 307.983459,189.993790 
	C308.009552,189.989883 307.981537,189.945175 308.206207,189.771957 
	C308.594757,189.072159 308.758636,188.545578 309.103973,187.763123 
	C310.227936,186.159546 311.170410,184.811859 312.383301,183.332458 
	C313.079163,182.792648 313.504547,182.384552 314.273438,181.882782 
	C316.388245,180.898499 318.121155,179.919357 319.937469,179.132828 
	C327.402496,175.900146 328.189545,174.035416 326.148102,166.103897 
	C325.129944,162.148026 324.699280,158.040955 324.002869,154.002274 
	C338.232300,147.448090 338.950348,147.887878 338.941467,163.067719 
	C338.939697,166.058334 339.008606,169.048981 339.037048,172.965500 
	C339.025391,193.880966 339.010590,213.870560 339.031219,233.860107 
	C339.033875,236.445938 339.175232,238.354813 335.507812,239.087433 
	C325.756683,241.035385 315.881561,242.939255 306.539703,246.233231 
	C289.745026,252.155121 274.707306,261.206390 262.842316,274.869690 
	C262.842316,274.869690 262.920654,274.936371 262.649231,274.934814 
	C262.008636,275.306183 261.639465,275.679047 261.270325,276.051941 
	C260.239838,276.179352 259.209320,276.306793 257.762207,275.972870 
	C237.290680,254.374283 212.285126,243.130402 183.797104,239.191284 
	C179.996170,238.665741 178.993622,237.208221 179.008453,233.983994 
z"/>
<path fill="#0E2749" opacity="1.000000" stroke="none" 
	d="
M222.042374,139.889130 
	C212.931442,135.645981 203.820496,131.402817 193.633194,126.658363 
	C195.839798,125.015274 197.152740,123.632011 198.761993,122.901230 
	C217.667419,114.315933 236.588989,105.764030 255.600693,97.418358 
	C257.432983,96.614037 260.203674,96.541908 262.021759,97.327042 
	C281.232941,105.623329 300.344849,114.149872 319.463806,122.658638 
	C321.073425,123.374992 322.535919,124.422035 325.794159,126.323593 
	C323.949707,127.131302 323.056061,127.552017 322.140686,127.918480 
	C317.962708,129.591064 313.605072,130.963226 315.110168,137.144226 
	C316.071289,141.091248 313.364227,145.717163 317.715240,149.166687 
	C318.830261,150.050705 318.736877,152.458939 318.955261,154.828094 
	C318.878174,158.594467 318.580475,161.812012 319.299744,164.783356 
	C321.283997,172.980499 320.985413,173.529007 312.462555,173.312729 
	C311.797333,173.295868 311.132751,173.253448 310.467560,173.233627 
	C307.665710,173.150085 306.772491,171.847244 307.222382,169.021362 
	C308.059448,163.763519 310.609985,158.561737 307.941010,153.082520 
	C307.588196,152.358200 307.843811,150.834839 308.407379,150.245590 
	C313.303741,145.126236 310.268921,139.036041 311.326935,132.543732 
	C295.392761,139.818161 280.289459,146.595551 265.306885,153.630051 
	C261.192200,155.561951 257.578461,155.630524 253.437531,153.719910 
	C243.055527,148.929672 232.517700,144.477127 222.042374,139.889130 
z"/>
<path fill="#F3F1EB" opacity="1.000000" stroke="none" 
	d="
M222.007050,140.218445 
	C232.517700,144.477127 243.055527,148.929672 253.437531,153.719910 
	C257.578461,155.630524 261.192200,155.561951 265.306885,153.630051 
	C280.289459,146.595551 295.392761,139.818161 311.326935,132.543732 
	C310.268921,139.036041 313.303741,145.126236 308.407379,150.245590 
	C307.843811,150.834839 307.588196,152.358200 307.941010,153.082520 
	C310.609985,158.561737 308.059448,163.763519 307.222382,169.021362 
	C306.772491,171.847244 307.665710,173.150085 310.467560,173.233627 
	C311.132751,173.253448 311.797333,173.295868 312.462555,173.312729 
	C320.985413,173.529007 321.283997,172.980499 319.299744,164.783356 
	C318.580475,161.812012 318.878174,158.594467 318.952209,155.235657 
	C320.560730,154.677765 321.928955,154.373489 323.650024,154.035736 
	C324.699280,158.040955 325.129944,162.148026 326.148102,166.103897 
	C328.189545,174.035416 327.402496,175.900146 319.937469,179.132828 
	C318.121155,179.919357 316.388245,180.898499 313.950195,181.929901 
	C312.893250,182.535187 312.503052,182.999680 312.112854,183.464172 
	C311.170410,184.811859 310.227936,186.159546 308.874573,187.928986 
	C308.302948,188.882202 308.142242,189.413681 307.981537,189.945175 
	C307.981537,189.945175 308.009552,189.989883 307.742493,190.188644 
	C307.362000,190.780762 307.248535,191.174118 307.135071,191.567490 
	C306.956146,192.589615 306.777191,193.611725 306.107544,194.945541 
	C305.452850,195.568237 305.288849,195.879242 305.124847,196.190231 
	C305.124847,196.190231 305.117065,196.079483 304.881927,196.194733 
	C304.417877,196.846329 304.188965,197.382660 303.960083,197.918991 
	C303.960083,197.918991 303.992188,197.986389 303.644714,198.030304 
	C302.864655,198.715088 302.432037,199.355927 301.999390,199.996765 
	C300.531891,201.568787 299.064392,203.140793 297.084625,204.960510 
	C296.292114,205.402313 296.100311,205.661789 295.996918,205.986649 
	C294.205109,207.903458 292.413300,209.820251 290.093933,211.978210 
	C289.381409,212.492523 289.196381,212.765701 289.011383,213.038879 
	C278.867523,223.408936 268.776794,233.832169 258.518768,244.087982 
	C257.088562,245.517883 254.835007,246.124283 252.315323,247.075897 
	C251.149979,247.218689 250.631927,247.397446 250.113861,247.576218 
	C248.605942,247.357086 247.098038,247.137955 245.133759,246.605240 
	C244.496109,246.140121 244.290283,246.038116 244.059906,245.985626 
	C244.059906,245.985626 244.009308,246.009491 243.834351,245.745956 
	C243.293228,245.362183 242.927094,245.241959 242.560959,245.121735 
	C238.471909,241.273911 234.382874,237.426117 230.107666,232.959717 
	C229.284988,231.892685 228.648468,231.444229 228.011948,230.995773 
	C227.732773,230.821152 227.453598,230.646545 226.985199,230.016907 
	C226.604980,229.287170 226.349487,229.100983 226.029465,229.003311 
	C224.768906,227.880341 223.508347,226.757370 222.079269,225.014099 
	C221.250488,223.938126 220.590240,223.482422 219.929977,223.026718 
	C216.380310,218.894089 212.830643,214.761459 209.411362,210.182892 
	C209.657471,209.405472 209.539474,209.168655 209.187759,209.026520 
	C209.736389,206.225632 210.285019,203.424728 211.394531,200.307892 
	C212.645660,199.135696 213.335892,198.279419 214.026093,197.423141 
	C214.757782,196.956268 215.489487,196.489410 216.934540,196.004425 
	C219.077591,195.734573 220.507263,195.482849 221.936935,195.231125 
	C225.160599,197.103271 228.384262,198.975403 231.928024,201.247009 
	C232.390472,201.807236 232.556702,201.937561 232.746796,202.037476 
	C232.746796,202.037476 232.910156,202.062561 232.989319,202.449799 
	C233.542282,203.185471 234.016098,203.533890 234.489914,203.882294 
	C235.556061,204.776443 236.622208,205.670578 237.879608,207.138901 
	C238.687561,208.150513 239.304276,208.587952 239.920975,209.025391 
	C240.568329,209.514160 241.262177,209.952438 241.856003,210.499313 
	C249.710785,217.733231 249.707275,217.737045 257.986145,210.093826 
	C259.065369,209.239090 259.513672,208.569061 259.962006,207.899048 
	C259.992035,202.566574 260.022064,197.234085 260.257446,191.358093 
	C260.677948,190.523499 260.626312,190.270752 260.307800,190.056335 
	C260.307800,190.056335 260.190338,189.663666 260.413513,189.296097 
	C271.504211,181.316544 282.388214,173.727905 293.220612,166.066299 
	C294.768921,164.971207 297.178772,163.610413 297.288025,162.222870 
	C297.746399,156.400589 297.481537,150.521362 297.481537,143.929947 
	C286.231598,149.043472 275.789978,153.694916 265.439117,158.540329 
	C261.201935,160.523834 257.221130,160.611664 253.027313,158.511322 
	C249.023087,156.505936 244.935226,154.646423 240.795364,152.937836 
	C234.125137,150.184937 227.381989,147.608719 220.669647,144.957870 
	C221.103668,143.487823 221.537689,142.017792 222.007050,140.218445 
M221.220764,217.441574 
	C221.427185,217.720215 221.698364,217.902466 222.603516,218.223404 
	C223.404877,219.143631 224.206238,220.063873 225.080643,221.627960 
	C225.716782,222.086655 226.352936,222.545349 227.607025,223.258575 
	C232.077011,227.823853 236.546982,232.389145 241.085388,237.611069 
	C241.735306,238.069534 242.385239,238.527985 243.631271,239.249603 
	C245.089676,240.179260 246.548080,241.108917 248.287506,242.472275 
	C248.850983,242.354919 249.414474,242.237564 250.659744,241.894852 
	C252.784454,240.403229 255.176453,239.180527 256.991028,237.376907 
	C270.129639,224.317581 283.151672,211.140961 296.834717,197.899933 
	C297.182434,197.425552 297.530151,196.951172 298.047607,195.998276 
	C298.434052,195.685928 298.820496,195.373566 299.779724,194.943680 
	C300.206146,194.360321 300.632568,193.776962 301.276855,192.681747 
	C301.570740,192.464066 301.864655,192.246399 302.554962,191.736343 
	C302.792084,191.487961 302.924255,191.192627 303.018890,190.005157 
	C303.127197,188.317444 303.235504,186.629745 303.564301,184.698135 
	C303.624207,184.332596 303.458435,184.102417 302.600433,183.480270 
	C297.737335,178.764297 295.106964,178.633728 290.406342,183.236069 
	C281.656342,191.803131 273.002380,200.468277 263.712738,209.284531 
	C263.508911,209.634506 263.305115,209.984497 262.959686,210.772064 
	C262.959686,210.772064 262.602753,211.062134 262.391052,211.180710 
	C262.391052,211.180710 262.079834,211.547318 261.643127,212.107788 
	C258.880615,214.704178 256.118134,217.300583 252.711121,220.213501 
	C252.440903,220.600906 252.170685,220.988312 251.734741,221.493164 
	C251.734741,221.493164 251.350388,221.382248 251.118378,221.993103 
	C251.078400,222.207214 251.038422,222.421326 250.343384,223.095474 
	C247.228119,220.729919 244.112854,218.364365 240.791626,215.555878 
	C240.594345,215.279648 240.332779,215.093964 239.391388,214.740433 
	C235.737518,211.142883 232.108582,207.519562 228.423782,203.953964 
	C223.241333,198.939133 219.356918,199.262634 214.476501,205.350647 
	C214.542984,206.208786 214.609467,207.066925 214.908249,208.613342 
	C216.278473,210.724304 217.648697,212.835266 219.208099,215.406433 
	C219.397018,215.696304 219.655670,215.895706 220.002045,215.999924 
	C220.002045,215.999924 219.994690,216.017578 220.210922,216.455566 
	C220.413361,216.728424 220.678802,216.908340 221.000000,217.000000 
	C221.000000,217.000000 221.004486,216.992981 221.220764,217.441574 
M249.797943,218.390381 
	C249.793915,218.784256 249.789886,219.178146 249.785873,219.572021 
	C249.949158,219.573593 250.254349,219.586044 250.255188,219.575195 
	C250.285156,219.183441 250.286789,218.789490 249.797943,218.390381 
z"/>
<path fill="#2861A1" opacity="1.000000" stroke="none" 
	d="
M343.077484,173.006241 
	C343.209839,169.280869 342.953186,165.666107 348.739044,166.045029 
	C352.801361,166.311050 354.168640,167.483856 354.143524,171.643875 
	C353.984650,197.960617 354.024567,224.278992 354.124390,250.596359 
	C354.138367,254.283340 353.445923,256.872833 349.150513,256.941925 
	C322.509460,257.370361 297.137482,263.472351 272.055054,274.053589 
	C271.158783,273.578827 270.695068,272.775238 270.830719,272.656555 
	C273.579376,270.251190 276.294067,267.786957 279.217072,265.604370 
	C296.860992,252.430054 317.015076,245.814651 338.646118,243.281616 
	C341.944916,242.895325 343.444092,241.644867 343.422943,238.337601 
	C343.283752,216.560638 343.187653,194.783386 343.077484,173.006241 
z"/>
<path fill="#245FA0" opacity="1.000000" stroke="none" 
	d="
M248.982132,274.947937 
	C242.154953,272.484436 235.324097,270.031036 228.501297,267.555481 
	C210.200989,260.915436 191.245529,257.808136 171.854935,257.128326 
	C164.887238,256.884033 164.646179,256.744507 164.626404,249.650101 
	C164.553986,223.677429 164.584076,197.703796 164.323715,171.733047 
	C164.279861,167.359055 165.945007,166.370758 169.854507,166.410797 
	C173.623093,166.449371 175.049026,167.552582 175.016983,171.609894 
	C174.855286,192.087997 175.005524,212.568588 175.025345,233.944794 
	C174.906052,243.047531 174.905899,243.048828 182.861053,243.961182 
	C183.354996,244.017838 183.858124,243.999619 184.350189,244.066345 
	C207.372543,247.188538 228.203079,255.400482 245.912292,270.748474 
	C247.189468,271.855347 247.970459,273.534729 248.982132,274.947937 
z"/>
<path fill="#0F274A" opacity="1.000000" stroke="none" 
	d="
M220.744019,145.422668 
	C227.381989,147.608719 234.125137,150.184937 240.795364,152.937836 
	C244.935226,154.646423 249.023087,156.505936 253.027313,158.511322 
	C257.221130,160.611664 261.201935,160.523834 265.439117,158.540329 
	C275.789978,153.694916 286.231598,149.043472 297.481537,143.929947 
	C297.481537,150.521362 297.746399,156.400589 297.288025,162.222870 
	C297.178772,163.610413 294.768921,164.971207 293.220612,166.066299 
	C282.388214,173.727905 271.504211,181.316544 260.336975,189.106018 
	C247.226990,180.797882 234.416779,172.312241 221.326935,163.275162 
	C220.957657,162.485245 220.867996,162.246780 220.778351,162.008316 
	C220.791687,156.634705 220.805023,151.261078 220.744019,145.422668 
z"/>
<path fill="#172C4C" opacity="1.000000" stroke="none" 
	d="
M241.809814,323.990448 
	C241.808044,315.042877 241.808044,306.592987 241.808044,298.238617 
	C250.275558,296.588562 250.585068,296.723602 254.492111,303.511292 
	C257.470642,308.685913 260.447510,313.861511 263.846985,319.769897 
	C267.089752,314.029755 270.105072,308.763641 273.051270,303.459076 
	C276.748749,296.801849 277.267090,296.549072 285.864227,298.213562 
	C285.864227,310.498322 285.961060,322.914490 285.648163,335.320312 
	C285.627136,336.154449 282.486969,337.555298 280.840790,337.495728 
	C279.558350,337.449341 277.322876,335.591370 277.265930,334.450867 
	C276.926910,327.660614 277.098328,320.844940 277.098328,312.511017 
	C273.627594,318.522034 270.902740,323.320343 268.099792,328.072601 
	C265.485260,332.505493 262.394043,332.483856 259.729858,328.032837 
	C257.027954,323.518890 254.382111,318.971436 250.676315,314.552338 
	C250.676315,320.044800 250.671387,325.537262 250.677521,331.029724 
	C250.685852,338.518585 250.536606,338.635406 241.811569,337.091980 
	C241.811569,332.995880 241.811569,328.742004 241.809814,323.990448 
z"/>
<path fill="#12284A" opacity="1.000000" stroke="none" 
	d="
M175.897919,297.833496 
	C187.442886,300.067657 193.249252,307.030609 193.048279,317.902100 
	C192.856430,328.280426 186.563324,335.815674 175.910172,337.169342 
	C169.910812,337.931671 163.735184,337.306732 157.214874,337.306732 
	C157.214874,324.380798 157.214874,311.361359 157.214874,297.810699 
	C163.295792,297.810699 169.379684,297.810699 175.897919,297.833496 
M165.345444,306.630859 
	C165.517670,314.082550 165.689911,321.534210 166.376434,329.632965 
	C172.822479,330.093140 179.195740,330.157684 182.507111,323.112946 
	C184.799835,318.235352 184.476532,313.228149 180.910980,309.168274 
	C176.878815,304.577118 171.403778,304.687622 165.345444,306.630859 
z"/>
<path fill="#172E4E" opacity="1.000000" stroke="none" 
	d="
M305.635284,329.968323 
	C304.601776,330.746246 303.808594,331.390625 303.433990,332.223358 
	C300.681213,338.342133 299.837280,338.746979 292.575226,336.712463 
	C295.222015,329.781738 297.834686,322.880035 300.494507,315.996521 
	C302.285461,311.361633 304.205872,306.775970 305.947113,302.122925 
	C306.975403,299.375092 307.882141,297.180267 311.701385,297.306183 
	C315.229034,297.422424 317.412415,297.953674 318.810822,301.705475 
	C322.860016,312.569153 327.377686,323.258026 331.684662,334.026245 
	C332.038055,334.909790 332.188202,335.874634 332.422974,336.764496 
	C325.533234,338.824249 324.659332,338.342926 321.634979,332.386719 
	C321.054291,331.243134 319.309357,330.111298 318.022644,330.013580 
	C314.058777,329.712616 310.056671,329.915100 305.635284,329.968323 
M310.120972,313.820068 
	C309.220001,316.445679 308.319061,319.071259 307.312775,322.003784 
	C310.921570,322.003784 314.000519,322.003784 317.672791,322.003784 
	C315.954132,317.270111 314.387329,312.954803 312.561676,307.926392 
	C311.632294,310.120483 311.000702,311.611542 310.120972,313.820068 
z"/>
<path fill="#162C4C" opacity="1.000000" stroke="none" 
	d="
M212.163605,329.111633 
	C221.238174,331.763153 225.031738,329.101166 225.132675,320.308472 
	C225.216553,313.001373 225.149857,305.692566 225.149857,297.976471 
	C228.137177,297.976471 230.838135,297.976471 233.724701,297.976471 
	C233.724701,307.205170 234.257889,316.190521 233.577332,325.082977 
	C232.872223,334.296021 226.360184,338.507050 215.222305,338.207092 
	C206.527283,337.972900 200.335556,332.715027 199.921921,324.326355 
	C199.496872,315.705872 199.827637,307.048187 199.827637,297.997772 
	C202.640900,297.997772 205.342270,297.997772 208.809311,297.997772 
	C208.809311,305.717010 208.551941,313.316925 208.945984,320.882935 
	C209.087906,323.607788 210.795731,326.251038 212.163605,329.111633 
z"/>
<path fill="#162C4C" opacity="1.000000" stroke="none" 
	d="
M123.082581,317.000366 
	C123.082329,310.390503 123.082329,304.280273 123.082329,297.931732 
	C132.200409,297.931732 140.759399,297.931732 149.258530,297.931732 
	C150.539902,305.297302 150.446457,305.409943 143.705734,305.407532 
	C140.379288,305.406311 137.052780,305.425751 133.726532,305.459198 
	C133.406982,305.462402 133.089096,305.631714 132.435760,305.820770 
	C132.435760,308.276978 132.435760,310.833130 132.435760,313.950684 
	C136.369965,313.950684 140.318146,314.093384 144.250229,313.903412 
	C147.147934,313.763428 147.989258,314.937988 147.963516,317.692627 
	C147.937515,320.474274 147.400513,322.135620 144.111359,321.961212 
	C140.321014,321.760254 136.511841,321.914581 132.395264,321.914581 
	C132.395264,324.628998 132.395264,327.016663 132.395264,329.996460 
	C135.242020,329.996460 138.018860,329.996460 140.795685,329.996460 
	C143.604095,329.996460 146.412521,329.996460 149.613434,329.996460 
	C149.613434,332.624817 149.613434,334.969482 149.613434,337.868683 
	C141.472626,337.868683 133.528366,337.973755 125.595650,337.719360 
	C124.724281,337.691406 123.249191,335.630615 123.196877,334.461548 
	C122.944298,328.817291 123.082939,323.155548 123.082581,317.000366 
z"/>
<path fill="#172D4E" opacity="1.000000" stroke="none" 
	d="
M372.034882,297.778107 
	C379.941803,297.778107 387.848724,297.778107 396.068939,297.778107 
	C396.068939,300.091797 396.068939,302.337738 396.068939,305.107605 
	C390.645752,305.107605 385.401550,305.107605 379.794434,305.107605 
	C379.794434,308.169800 379.794434,310.717834 379.794434,313.747437 
	C384.834747,313.747437 389.766357,313.747437 394.943787,313.747437 
	C394.943787,316.489136 394.943787,318.755096 394.943787,321.579926 
	C389.838806,321.579926 384.931702,321.579926 379.751892,321.579926 
	C379.751892,324.531036 379.751892,326.924133 379.751892,329.777496 
	C385.444489,329.777496 390.871490,329.777496 396.588562,329.777496 
	C396.588562,332.473450 396.588562,334.714020 396.588562,337.552826 
	C388.567444,337.552826 380.620819,337.552826 372.331848,336.865662 
	C372.004608,323.378387 372.019745,310.578247 372.034882,297.778107 
z"/>
<path fill="#EDF1ED" opacity="1.000000" stroke="none" 
	d="
M342.689148,173.005508 
	C343.187653,194.783386 343.283752,216.560638 343.422943,238.337601 
	C343.444092,241.644867 341.944916,242.895325 338.646118,243.281616 
	C317.015076,245.814651 296.860992,252.430054 279.217072,265.604370 
	C276.294067,267.786957 273.579376,270.251190 270.830719,272.656555 
	C270.695068,272.775238 271.158783,273.578827 271.682983,274.130798 
	C269.632263,279.002777 266.470093,275.328949 263.225708,274.916870 
	C274.707306,261.206390 289.745026,252.155121 306.539703,246.233231 
	C315.881561,242.939255 325.756683,241.035385 335.507812,239.087433 
	C339.175232,238.354813 339.033875,236.445938 339.031219,233.860107 
	C339.010590,213.870560 339.025391,193.880966 339.114563,173.425873 
	C340.233551,172.975159 341.267212,172.989975 342.689148,173.005508 
z"/>
<path fill="#162B4D" opacity="1.000000" stroke="none" 
	d="
M363.053223,297.512878 
	C363.774109,299.976959 364.099548,302.310822 364.507721,305.238068 
	C360.133057,305.238068 356.560455,305.238068 352.469971,305.238068 
	C352.469971,316.118500 352.469971,326.499695 352.469971,337.259705 
	C349.405212,337.259705 346.856995,337.259705 343.739380,337.259705 
	C343.739380,326.772766 343.739380,316.390747 343.739380,305.270935 
	C340.778534,305.270935 338.361420,305.160400 335.958740,305.299530 
	C333.111053,305.464478 331.228363,305.100525 331.223907,301.435089 
	C331.219696,297.966919 332.707306,297.283447 335.754791,297.330872 
	C344.720551,297.470398 353.689850,297.381897 363.053223,297.512878 
z"/>
<path fill="#EAEFED" opacity="1.000000" stroke="none" 
	d="
M249.050705,275.317932 
	C247.970459,273.534729 247.189468,271.855347 245.912292,270.748474 
	C228.203079,255.400482 207.372543,247.188538 184.350189,244.066345 
	C183.858124,243.999619 183.354996,244.017838 182.861053,243.961182 
	C174.905899,243.048828 174.906052,243.047531 175.097015,234.406723 
	C176.207932,233.980118 177.226227,233.988068 178.626495,233.990005 
	C178.993622,237.208221 179.996170,238.665741 183.797104,239.191284 
	C212.285126,243.130402 237.290680,254.374283 257.474060,275.801056 
	C254.774811,275.956360 251.947037,275.822144 249.050705,275.317932 
z"/>
<path fill="#111E37" opacity="1.000000" stroke="none" 
	d="
M371.597534,297.939880 
	C372.019745,310.578247 372.004608,323.378387 371.976624,336.655762 
	C371.557648,336.683258 370.794769,336.231476 370.797394,335.784149 
	C370.870972,323.223053 371.021912,310.662415 371.597534,297.939880 
z"/>
<path fill="#EDF1ED" opacity="1.000000" stroke="none" 
	d="
M261.547180,276.013550 
	C261.639465,275.679047 262.008636,275.306183 262.646393,274.883484 
	C262.551331,275.214172 262.187683,275.594666 261.547180,276.013550 
z"/>
<path fill="#F3F1EB" opacity="1.000000" stroke="none" 
	d="
M217.730682,162.159027 
	C217.824158,162.216721 217.572739,162.379028 217.572739,162.379028 
	C217.572739,162.379028 217.314240,162.227921 217.270142,162.082794 
	C217.226044,161.937683 217.637207,162.101334 217.730682,162.159027 
z"/>
<path fill="#F3F1EB" opacity="1.000000" stroke="none" 
	d="
M220.595612,162.117355 
	C220.867996,162.246780 220.957657,162.485245 221.057190,163.108368 
	C220.876968,163.427124 220.686874,163.361237 220.246826,163.126007 
	C220.058792,162.669525 220.197449,162.426102 220.595612,162.117355 
z"/>
<path fill="#ECF2E9" opacity="1.000000" stroke="none" 
	d="
M213.753204,197.485596 
	C213.335892,198.279419 212.645660,199.135696 211.631531,200.004028 
	C212.031845,199.193420 212.756088,198.370728 213.753204,197.485596 
z"/>
<path fill="#ECF2E9" opacity="1.000000" stroke="none" 
	d="
M221.562988,195.147141 
	C220.507263,195.482849 219.077591,195.734573 217.262512,195.967422 
	C218.314407,195.653412 219.751724,195.358276 221.562988,195.147141 
z"/>
<path fill="#ECF2E9" opacity="1.000000" stroke="none" 
	d="
M239.798889,208.771057 
	C239.304276,208.587952 238.687561,208.150513 238.018768,207.408691 
	C238.536728,207.575104 239.106781,208.045914 239.798889,208.771057 
z"/>
<path fill="#ECF2E9" opacity="1.000000" stroke="none" 
	d="
M220.055664,223.294891 
	C220.590240,223.482422 221.250488,223.938126 221.944031,224.725861 
	C221.378662,224.559601 220.779999,224.061325 220.055664,223.294891 
z"/>
<path fill="#ECF2E9" opacity="1.000000" stroke="none" 
	d="
M228.129150,231.260788 
	C228.648468,231.444229 229.284988,231.892685 229.964783,232.658783 
	C229.420837,232.492889 228.833588,232.009338 228.129150,231.260788 
z"/>
<path fill="#ECF2E9" opacity="1.000000" stroke="none" 
	d="
M259.698364,208.036224 
	C259.513672,208.569061 259.065369,209.239090 258.283478,209.945129 
	C258.444824,209.378571 258.939758,208.775986 259.698364,208.036224 
z"/>
<path fill="#ECF2E9" opacity="1.000000" stroke="none" 
	d="
M302.262787,199.875290 
	C302.432037,199.355927 302.864655,198.715088 303.609253,198.018738 
	C303.456177,198.560120 302.991180,199.156967 302.262787,199.875290 
z"/>
<path fill="#ECF2E9" opacity="1.000000" stroke="none" 
	d="
M312.383301,183.332443 
	C312.503052,182.999680 312.893250,182.535187 313.606689,182.023590 
	C313.504547,182.384552 313.079163,182.792648 312.383301,183.332443 
z"/>
<path fill="#ECF2E9" opacity="1.000000" stroke="none" 
	d="
M234.357773,203.616364 
	C234.016098,203.533890 233.542282,203.185471 232.993774,202.532333 
	C233.354584,202.601883 233.790100,202.976151 234.357773,203.616364 
z"/>
<path fill="#ECF2E9" opacity="1.000000" stroke="none" 
	d="
M250.393829,247.647003 
	C250.631927,247.397446 251.149979,247.218689 251.954742,247.066971 
	C251.718887,247.301956 251.196335,247.509888 250.393829,247.647003 
z"/>
<path fill="#ECF2E9" opacity="1.000000" stroke="none" 
	d="
M304.223083,197.789948 
	C304.188965,197.382660 304.417877,196.846329 304.934814,196.211563 
	C304.977295,196.629059 304.731689,197.144989 304.223083,197.789948 
z"/>
<path fill="#ECF2E9" opacity="1.000000" stroke="none" 
	d="
M308.206207,189.771957 
	C308.142242,189.413681 308.302948,188.882202 308.693054,188.184860 
	C308.758636,188.545578 308.594757,189.072159 308.206207,189.771957 
z"/>
<path fill="#ECF2E9" opacity="1.000000" stroke="none" 
	d="
M244.141541,246.156586 
	C244.290283,246.038116 244.496109,246.140121 244.790085,246.421387 
	C244.902786,246.551147 244.525909,246.552017 244.525909,246.552017 
	C244.525909,246.552017 244.223160,246.327530 244.141541,246.156586 
z"/>
<path fill="#ECF2E9" opacity="1.000000" stroke="none" 
	d="
M242.746490,245.345917 
	C242.927094,245.241959 243.293228,245.362183 243.832748,245.718018 
	C243.648087,245.825775 243.290039,245.697937 242.746490,245.345917 
z"/>
<path fill="#ECF2E9" opacity="1.000000" stroke="none" 
	d="
M209.155731,209.263947 
	C209.539474,209.168655 209.657471,209.405472 209.426590,209.839600 
	C209.311432,209.942230 209.123688,209.501373 209.155731,209.263947 
z"/>
<path fill="#ECF2E9" opacity="1.000000" stroke="none" 
	d="
M260.217255,190.277969 
	C260.626312,190.270752 260.677948,190.523499 260.328979,190.894043 
	C260.195190,190.973495 260.126709,190.499603 260.217255,190.277969 
z"/>
<path fill="#ECF2E9" opacity="1.000000" stroke="none" 
	d="
M307.382446,191.375763 
	C307.248535,191.174118 307.362000,190.780762 307.716400,190.192551 
	C307.848206,190.393143 307.739014,190.788589 307.382446,191.375763 
z"/>
<path fill="#ECF2E9" opacity="1.000000" stroke="none" 
	d="
M305.385498,196.102158 
	C305.288849,195.879242 305.452850,195.568237 305.865417,195.150650 
	C305.958008,195.367401 305.802063,195.690735 305.385498,196.102158 
z"/>
<path fill="#ECF2E9" opacity="1.000000" stroke="none" 
	d="
M232.713226,201.861511 
	C232.556702,201.937561 232.390472,201.807236 232.163040,201.514893 
	C232.347992,201.345764 232.548553,201.446518 232.713226,201.861511 
z"/>
<path fill="#ECF2E9" opacity="1.000000" stroke="none" 
	d="
M296.238373,205.906891 
	C296.100311,205.661789 296.292114,205.402313 296.796600,205.107971 
	C296.840485,205.280853 296.660156,205.553986 296.238373,205.906891 
z"/>
<path fill="#ECF2E9" opacity="1.000000" stroke="none" 
	d="
M226.117188,229.231262 
	C226.349487,229.100983 226.604980,229.287170 226.896576,229.780701 
	C226.662384,229.923065 226.398300,229.742950 226.117188,229.231262 
z"/>
<path fill="#ECF2E9" opacity="1.000000" stroke="none" 
	d="
M289.252197,212.950653 
	C289.196381,212.765701 289.381409,212.492523 289.794067,212.112213 
	C289.845520,212.290848 289.669250,212.576630 289.252197,212.950653 
z"/>
<path fill="#35C06B" opacity="1.000000" stroke="none" 
	d="
M299.206940,195.061203 
	C298.820496,195.373566 298.434052,195.685928 297.700378,196.370850 
	C296.972321,197.162781 296.591492,197.582138 296.210632,198.001465 
	C283.151672,211.140961 270.129639,224.317581 256.991028,237.376907 
	C255.176453,239.180527 252.784454,240.403229 249.994034,241.937637 
	C248.887711,241.999802 248.447113,242.019180 248.006500,242.038574 
	C246.548080,241.108917 245.089676,240.179260 243.209259,238.851227 
	C242.197144,237.953384 241.607056,237.453918 241.016953,236.954437 
	C236.546982,232.389145 232.077011,227.823853 227.193405,222.856506 
	C226.189056,221.964325 225.598328,221.474213 225.007599,220.984116 
	C224.206238,220.063873 223.404877,219.143631 222.228973,217.864563 
	C221.571106,217.334808 221.287796,217.163895 221.004486,216.992981 
	C221.004486,216.992981 221.000000,217.000000 220.911133,216.767181 
	C220.612549,216.256165 220.336700,216.083908 219.994690,216.017578 
	C219.994690,216.017578 220.002045,215.999924 219.929016,215.751587 
	C219.576950,215.317581 219.297928,215.131912 219.018921,214.946228 
	C217.648697,212.835266 216.278473,210.724304 214.869476,207.910645 
	C214.867615,206.476074 214.904526,205.744217 214.941422,205.012360 
	C219.356918,199.262634 223.241333,198.939133 228.423782,203.953964 
	C232.108582,207.519562 235.737518,211.142883 239.788345,215.103241 
	C240.369415,215.775726 240.640182,215.953323 240.997589,215.998810 
	C244.112854,218.364365 247.228119,220.729919 250.888290,222.787598 
	C251.523697,222.353241 251.710068,222.203247 251.685944,222.104904 
	C251.623825,221.851822 251.468475,221.621613 251.350388,221.382248 
	C251.350388,221.382248 251.734741,221.493164 252.164246,221.305817 
	C252.847717,220.711319 253.101685,220.304153 253.355652,219.896988 
	C256.118134,217.300583 258.880615,214.704178 262.010162,211.835617 
	C262.592957,211.459717 262.668121,211.292618 262.602753,211.062134 
	C262.602753,211.062134 262.959686,210.772064 263.293915,210.412689 
	C263.854919,209.733078 264.081696,209.412842 264.308472,209.092590 
	C273.002380,200.468277 281.656342,191.803131 290.406342,183.236069 
	C295.106964,178.633728 297.737335,178.764297 302.838623,183.996552 
	C303.165833,184.655914 303.254822,184.798981 303.343811,184.942032 
	C303.235504,186.629745 303.127197,188.317444 302.782623,190.570465 
	C302.307343,191.385773 302.178070,191.683411 302.158539,192.028717 
	C301.864655,192.246399 301.570740,192.464066 300.922577,193.052521 
	C300.114502,193.969284 299.660706,194.515244 299.206940,195.061203 
z"/>
<path fill="#ECF2E9" opacity="1.000000" stroke="none" 
	d="
M250.045135,218.393127 
	C250.286789,218.789490 250.285156,219.183441 250.255188,219.575195 
	C250.254349,219.586044 249.949158,219.573593 249.785858,219.572021 
	C249.789886,219.178146 249.793915,218.784256 250.045135,218.393127 
z"/>
<path fill="#ECF2E9" opacity="1.000000" stroke="none" 
	d="
M225.044113,221.306030 
	C225.598328,221.474213 226.189056,221.964325 226.884430,222.729248 
	C226.352936,222.545349 225.716782,222.086655 225.044113,221.306030 
z"/>
<path fill="#ECF2E9" opacity="1.000000" stroke="none" 
	d="
M241.051178,237.282745 
	C241.607056,237.453918 242.197144,237.953384 242.911194,238.719666 
	C242.385239,238.527985 241.735306,238.069534 241.051178,237.282745 
z"/>
<path fill="#ECF2E9" opacity="1.000000" stroke="none" 
	d="
M214.708954,205.181503 
	C214.904526,205.744217 214.867615,206.476074 214.753326,207.566498 
	C214.609467,207.066925 214.542984,206.208786 214.708954,205.181503 
z"/>
<path fill="#ECF2E9" opacity="1.000000" stroke="none" 
	d="
M299.493347,195.002441 
	C299.660706,194.515244 300.114502,193.969284 300.813629,193.308456 
	C300.632568,193.776962 300.206146,194.360321 299.493347,195.002441 
z"/>
<path fill="#ECF2E9" opacity="1.000000" stroke="none" 
	d="
M248.147003,242.255417 
	C248.447113,242.019180 248.887711,241.999802 249.653137,242.050323 
	C249.414474,242.237564 248.850983,242.354919 248.147003,242.255417 
z"/>
<path fill="#ECF2E9" opacity="1.000000" stroke="none" 
	d="
M296.522675,197.950714 
	C296.591492,197.582138 296.972321,197.162781 297.615540,196.610107 
	C297.530151,196.951172 297.182434,197.425552 296.522675,197.950714 
z"/>
<path fill="#ECF2E9" opacity="1.000000" stroke="none" 
	d="
M219.113510,215.176331 
	C219.297928,215.131912 219.576950,215.317581 219.920013,215.753967 
	C219.655670,215.895706 219.397018,215.696304 219.113510,215.176331 
z"/>
<path fill="#ECF2E9" opacity="1.000000" stroke="none" 
	d="
M303.454041,184.820084 
	C303.254822,184.798981 303.165833,184.655914 303.071869,184.260208 
	C303.458435,184.102417 303.624207,184.332596 303.454041,184.820084 
z"/>
<path fill="#ECF2E9" opacity="1.000000" stroke="none" 
	d="
M302.356750,191.882538 
	C302.178070,191.683411 302.307343,191.385773 302.748962,190.993042 
	C302.924255,191.192627 302.792084,191.487961 302.356750,191.882538 
z"/>
<path fill="#ECF2E9" opacity="1.000000" stroke="none" 
	d="
M264.010620,209.188568 
	C264.081696,209.412842 263.854919,209.733078 263.364716,210.193893 
	C263.305115,209.984497 263.508911,209.634506 264.010620,209.188568 
z"/>
<path fill="#ECF2E9" opacity="1.000000" stroke="none" 
	d="
M262.496887,211.121429 
	C262.668121,211.292618 262.592957,211.459717 262.228516,211.555389 
	C262.079834,211.547318 262.391052,211.180710 262.496887,211.121429 
z"/>
<path fill="#ECF2E9" opacity="1.000000" stroke="none" 
	d="
M240.894608,215.777344 
	C240.640182,215.953323 240.369415,215.775726 240.096115,215.232422 
	C240.332779,215.093964 240.594345,215.279648 240.894608,215.777344 
z"/>
<path fill="#ECF2E9" opacity="1.000000" stroke="none" 
	d="
M220.102814,216.236572 
	C220.336700,216.083908 220.612549,216.256165 220.914734,216.764847 
	C220.678802,216.908340 220.413361,216.728424 220.102814,216.236572 
z"/>
<path fill="#ECF2E9" opacity="1.000000" stroke="none" 
	d="
M221.112625,217.217285 
	C221.287796,217.163895 221.571106,217.334808 221.944366,217.747040 
	C221.698364,217.902466 221.427185,217.720215 221.112625,217.217285 
z"/>
<path fill="#ECF2E9" opacity="1.000000" stroke="none" 
	d="
M253.033386,220.055237 
	C253.101685,220.304153 252.847717,220.711319 252.247101,221.247101 
	C252.170685,220.988312 252.440903,220.600906 253.033386,220.055237 
z"/>
<path fill="#ECF2E9" opacity="1.000000" stroke="none" 
	d="
M251.234375,221.687683 
	C251.468475,221.621613 251.623825,221.851822 251.685944,222.104904 
	C251.710068,222.203247 251.523697,222.353241 251.215820,222.557571 
	C251.038422,222.421326 251.078400,222.207214 251.234375,221.687683 
z"/>
<path fill="#F7F8F8" opacity="1.000000" stroke="none" 
	d="
M165.889282,306.002747 
	C171.403778,304.687622 176.878815,304.577118 180.910980,309.168274 
	C184.476532,313.228149 184.799835,318.235352 182.507111,323.112946 
	C179.195740,330.157684 172.822479,330.093140 166.177444,328.844299 
	C165.948730,320.704681 165.919006,313.353729 165.889282,306.002747 
z"/>
<path fill="#1B2232" opacity="1.000000" stroke="none" 
	d="
M165.617371,306.316803 
	C165.919006,313.353729 165.948730,320.704681 165.920288,328.520782 
	C165.689911,321.534210 165.517670,314.082550 165.617371,306.316803 
z"/>
<path fill="#EBEDEF" opacity="1.000000" stroke="none" 
	d="
M310.245056,313.461334 
	C311.000702,311.611542 311.632294,310.120483 312.561676,307.926392 
	C314.387329,312.954803 315.954132,317.270111 317.672791,322.003784 
	C314.000519,322.003784 310.921570,322.003784 307.312775,322.003784 
	C308.319061,319.071259 309.220001,316.445679 310.245056,313.461334 
z"/>
</svg>